<svg xmlns="http://www.w3.org/2000/svg" viewBox="0 0 1000 425" width="1000" height="425" font-family="Helvetica, Arial, sans-serif" xmlns:c2pa="http://c2pa.org/manifest"><metadata><c2pa:manifest>AAAWgmp1bWIAAAAeanVtZGMycGEAEQAQgAAAqgA4m3EDYzJwYQAAABZcanVtYgAAAEdqdW1kYzJtYQARABCAAACqADibcQN1cm46YzJwYTo5ZWRmNzczYy02ODk4LTQ4YmYtODMzNS03NmM4NTA1MDVlZjQAAAADl2p1bWIAAAApanVtZGMyYXMAEQAQgAAAqgA4m3EDYzJwYS5hc3NlcnRpb25zAAAAALxqdW1iAAAARGp1bWRjYm9yABEAEIAAAKoAOJtxE2MycGEuaW5ncmVkaWVudC52MwAAAAAYYzJzaFShWaDLFopYRjOheBZjLPcAAABwY2JvcqNpZGM6Zm9ybWF0bWltYWdlL3N2Zyt4bWxqaW5zdGFuY2VJRHgseG1wOmlpZDoyODc0ZjRjNS1mNTU1LTRjMWQtYTFhNy1kN2YzYWNhZWJkNzZscmVsYXRpb25zaGlwaHBhcmVudE9mAAAB4mp1bWIAAABBanVtZGNib3IAEQAQgAAAqgA4m3ETYzJwYS5hY3Rpb25zLnYyAAAAABhjMnNoV97CI3eNfY8HGS9I6KDtyAAAAZljYm9yomdhY3Rpb25zgqJmYWN0aW9ua2MycGEub3BlbmVkanBhcmFtZXRlcnOha2luZ3JlZGllbnRzgaJjdXJseC1zZWxmI2p1bWJmPWMycGEuYXNzZXJ0aW9ucy9jMnBhLmluZ3JlZGllbnQudjNkaGFzaFgg/Wxd2lgyVyUgA9UcyfJTuOHX8JpXMmr9UpeBoylwdMmkZmFjdGlvbngdY29tLmFudGhyb3BpYy5jbGF1ZGUucHJvdmlkZWRqcGFyYW1ldGVyc6F4H2NvbS5hbnRocm9waWMub3JpZ2luLWNvbmZpZGVuY2VndW5rbm93bmtkZXNjcmlwdGlvbnhmQ2xhdWRlIHByb3ZpZGVkIHRoaXMgZmlsZSBhdCB0aGUgcmVxdWVzdCBvZiBhIHVzZXIgYW5kIG1heSBoYXZlIGNyZWF0ZWQgb3IgbW9kaWZpZWQgdGhlIGZpbGUgY29udGVudHMubXNvZnR3YXJlQWdlbnShZG5hbWVmQ2xhdWRlcmFsbEFjdGlvbnNJbmNsdWRlZPUAAADIanVtYgAAAEBqdW1kY2JvcgARABCAAACqADibcRNjMnBhLmhhc2guZGF0YQAAAAAYYzJzaO8YPEfKQSQgguWlYZZYDicAAACAY2JvcqVjYWxnZnNoYTI1NmNwYWRNAAAAAAAAAAAAAAAAAGRoYXNoWCCjQQQdeEMaKntTi/vu5FA9BkRdn2kh/+1fXRcfsJKX2WRuYW1lbmp1bWJmIG1hbmlmZXN0amV4Y2x1c2lvbnOBomVzdGFydBjDZmxlbmd0aBkeBAAAAj5qdW1iAAAAJ2p1bWRjMmNsABEAEIAAAKoAOJtxA2MycGEuY2xhaW0udjIAAAACD2Nib3KlY2FsZ2ZzaGEyNTZpc2lnbmF0dXJleE1zZWxmI2p1bWJmPS9jMnBhL3VybjpjMnBhOjllZGY3NzNjLTY4OTgtNDhiZi04MzM1LTc2Yzg1MDUwNWVmNC9jMnBhLnNpZ25hdHVyZWppbnN0YW5jZUlEeCx4bXA6aWlkOjllYmYwMTljLWY3MjEtNDQwNy1iMzEyLWVmNDViOTJhZWY2MnJjcmVhdGVkX2Fzc2VydGlvbnODomN1cmx4LXNlbGYjanVtYmY9YzJwYS5hc3NlcnRpb25zL2MycGEuaW5ncmVkaWVudC52M2RoYXNoWCD9bF3aWDJXJSAD1RzJ8lO44dfwmlcyav1Sl4GjKXB0yaJjdXJseCpzZWxmI2p1bWJmPWMycGEuYXNzZXJ0aW9ucy9jMnBhLmFjdGlvbnMudjJkaGFzaFggCR5G2kFvYHjYjI0/cWdvEqZ1bXbyqIqpin2+XswipK2iY3VybHgpc2VsZiNqdW1iZj1jMnBhLmFzc2VydGlvbnMvYzJwYS5oYXNoLmRhdGFkaGFzaFgg7mSdwOr7NSTp9K9UV7B5lhP6DjLyf+OKI6hOQBYUlDB0Y2xhaW1fZ2VuZXJhdG9yX2luZm+jZG5hbWVvQW50aHJvcGljIEZpbGVzZ3ZlcnNpb25lMS4wLjBrc3BlY1ZlcnNpb25lMi40LjAAABA4anVtYgAAAChqdW1kYzJjcwARABCAAACqADibcQNjMnBhLnNpZ25hdHVyZQAAABAIY2JvctKEWQISogEmGCFZAgowggIGMIIBjaADAgECAhRA5aAK7sI50L64g/oGQgU9Z1UTADAKBggqhkjOPQQDAzBJMRcwFQYDVQQKEw5BbnRocm9waWMsIFBCQzEuMCwGA1UEAxMlQW50aHJvcGljIENvbnRlbnQgQ3JlZGVudGlhbHMgUm9vdCBDQTAeFw0yNjA4MDcxODQzNTZaFw0yODA4MDYxOTQzNTZaMEQxFzAVBgNVBAoTDkFudGhyb3BpYywgUEJDMSkwJwYDVQQDEyBBbnRocm9waWMgQ2xhdWRlIENvbnRlbnQgU2lnbmluZzBZMBMGByqGSM49AgEGCCqGSM49AwEHA0IABJh6CmvLUBgFFNU0vUKlOVtE6djd17L5SuwX0LemFisBM3dkd/3cyjxFA3Qo5S46fX0/ihY0VZ7mfb9KF703t5OjWDBWMA4GA1UdDwEB/wQEAwIHgDAVBgNVHSUEDjAMBgorBgEEAYPoXgIBMAwGA1UdEwEB/wQCMAAwHwYDVR0jBBgwFoAUzlHiBIFOZFsj+OPEz5o+nMHXXMIwCgYIKoZIzj0EAwMDZwAwZAIwMXMdFJ4BetLLVY7ORuE9noqbbAZOZn/aArXyTwFAZfKrPzxF2vPoJNf1+UCdg1XGAjBwX1zd9WGqYkqmL5SFqw1QySjr1zJfpJM9+1rdDwSPLMOPOjKuiXjoU/pUUeG9RwmhY3BhZFkNngAAAAAAAAAAAAAAAAAAAAAAAAAAAAAAAAAAAAAAAAAAAAAAAAAAAAAAAAAAAAAAAAAAAAAAAAAAAAAAAAAAAAAAAAAAAAAAAAAAAAAAAAAAAAAAAAAAAAAAAAAAAAAAAAAAAAAAAAAAAAAAAAAAAAAAAAAAAAAAAAAAAAAAAAAAAAAAAAAAAAAAAAAAAAAAAAAAAAAAAAAAAAAAAAAAAAAAAAAAAAAAAAAAAAAAAAAAAAAAAAAAAAAAAAAAAAAAAAAAAAAAAAAAAAAAAAAAAAAAAAAAAAAAAAAAAAAAAAAAAAAAAAAAAAAAAAAAAAAAAAAAAAAAAAAAAAAAAAAAAAAAAAAAAAAAAAAAAAAAAAAAAAAAAAAAAAAAAAAAAAAAAAAAAAAAAAAAAAAAAAAAAAAAAAAAAAAAAAAAAAAAAAAAAAAAAAAAAAAAAAAAAAAAAAAAAAAAAAAAAAAAAAAAAAAAAAAAAAAAAAAAAAAAAAAAAAAAAAAAAAAAAAAAAAAAAAAAAAAAAAAAAAAAAAAAAAAAAAAAAAAAAAAAAAAAAAAAAAAAAAAAAAAAAAAAAAAAAAAAAAAAAAAAAAAAAAAAAAAAAAAAAAAAAAAAAAAAAAAAAAAAAAAAAAAAAAAAAAAAAAAAAAAAAAAAAAAAAAAAAAAAAAAAAAAAAAAAAAAAAAAAAAAAAAAAAAAAAAAAAAAAAAAAAAAAAAAAAAAAAAAAAAAAAAAAAAAAAAAAAAAAAAAAAAAAAAAAAAAAAAAAAAAAAAAAAAAAAAAAAAAAAAAAAAAAAAAAAAAAAAAAAAAAAAAAAAAAAAAAAAAAAAAAAAAAAAAAAAAAAAAAAAAAAAAAAAAAAAAAAAAAAAAAAAAAAAAAAAAAAAAAAAAAAAAAAAAAAAAAAAAAAAAAAAAAAAAAAAAAAAAAAAAAAAAAAAAAAAAAAAAAAAAAAAAAAAAAAAAAAAAAAAAAAAAAAAAAAAAAAAAAAAAAAAAAAAAAAAAAAAAAAAAAAAAAAAAAAAAAAAAAAAAAAAAAAAAAAAAAAAAAAAAAAAAAAAAAAAAAAAAAAAAAAAAAAAAAAAAAAAAAAAAAAAAAAAAAAAAAAAAAAAAAAAAAAAAAAAAAAAAAAAAAAAAAAAAAAAAAAAAAAAAAAAAAAAAAAAAAAAAAAAAAAAAAAAAAAAAAAAAAAAAAAAAAAAAAAAAAAAAAAAAAAAAAAAAAAAAAAAAAAAAAAAAAAAAAAAAAAAAAAAAAAAAAAAAAAAAAAAAAAAAAAAAAAAAAAAAAAAAAAAAAAAAAAAAAAAAAAAAAAAAAAAAAAAAAAAAAAAAAAAAAAAAAAAAAAAAAAAAAAAAAAAAAAAAAAAAAAAAAAAAAAAAAAAAAAAAAAAAAAAAAAAAAAAAAAAAAAAAAAAAAAAAAAAAAAAAAAAAAAAAAAAAAAAAAAAAAAAAAAAAAAAAAAAAAAAAAAAAAAAAAAAAAAAAAAAAAAAAAAAAAAAAAAAAAAAAAAAAAAAAAAAAAAAAAAAAAAAAAAAAAAAAAAAAAAAAAAAAAAAAAAAAAAAAAAAAAAAAAAAAAAAAAAAAAAAAAAAAAAAAAAAAAAAAAAAAAAAAAAAAAAAAAAAAAAAAAAAAAAAAAAAAAAAAAAAAAAAAAAAAAAAAAAAAAAAAAAAAAAAAAAAAAAAAAAAAAAAAAAAAAAAAAAAAAAAAAAAAAAAAAAAAAAAAAAAAAAAAAAAAAAAAAAAAAAAAAAAAAAAAAAAAAAAAAAAAAAAAAAAAAAAAAAAAAAAAAAAAAAAAAAAAAAAAAAAAAAAAAAAAAAAAAAAAAAAAAAAAAAAAAAAAAAAAAAAAAAAAAAAAAAAAAAAAAAAAAAAAAAAAAAAAAAAAAAAAAAAAAAAAAAAAAAAAAAAAAAAAAAAAAAAAAAAAAAAAAAAAAAAAAAAAAAAAAAAAAAAAAAAAAAAAAAAAAAAAAAAAAAAAAAAAAAAAAAAAAAAAAAAAAAAAAAAAAAAAAAAAAAAAAAAAAAAAAAAAAAAAAAAAAAAAAAAAAAAAAAAAAAAAAAAAAAAAAAAAAAAAAAAAAAAAAAAAAAAAAAAAAAAAAAAAAAAAAAAAAAAAAAAAAAAAAAAAAAAAAAAAAAAAAAAAAAAAAAAAAAAAAAAAAAAAAAAAAAAAAAAAAAAAAAAAAAAAAAAAAAAAAAAAAAAAAAAAAAAAAAAAAAAAAAAAAAAAAAAAAAAAAAAAAAAAAAAAAAAAAAAAAAAAAAAAAAAAAAAAAAAAAAAAAAAAAAAAAAAAAAAAAAAAAAAAAAAAAAAAAAAAAAAAAAAAAAAAAAAAAAAAAAAAAAAAAAAAAAAAAAAAAAAAAAAAAAAAAAAAAAAAAAAAAAAAAAAAAAAAAAAAAAAAAAAAAAAAAAAAAAAAAAAAAAAAAAAAAAAAAAAAAAAAAAAAAAAAAAAAAAAAAAAAAAAAAAAAAAAAAAAAAAAAAAAAAAAAAAAAAAAAAAAAAAAAAAAAAAAAAAAAAAAAAAAAAAAAAAAAAAAAAAAAAAAAAAAAAAAAAAAAAAAAAAAAAAAAAAAAAAAAAAAAAAAAAAAAAAAAAAAAAAAAAAAAAAAAAAAAAAAAAAAAAAAAAAAAAAAAAAAAAAAAAAAAAAAAAAAAAAAAAAAAAAAAAAAAAAAAAAAAAAAAAAAAAAAAAAAAAAAAAAAAAAAAAAAAAAAAAAAAAAAAAAAAAAAAAAAAAAAAAAAAAAAAAAAAAAAAAAAAAAAAAAAAAAAAAAAAAAAAAAAAAAAAAAAAAAAAAAAAAAAAAAAAAAAAAAAAAAAAAAAAAAAAAAAAAAAAAAAAAAAAAAAAAAAAAAAAAAAAAAAAAAAAAAAAAAAAAAAAAAAAAAAAAAAAAAAAAAAAAAAAAAAAAAAAAAAAAAAAAAAAAAAAAAAAAAAAAAAAAAAAAAAAAAAAAAAAAAAAAAAAAAAAAAAAAAAAAAAAAAAAAAAAAAAAAAAAAAAAAAAAAAAAAAAAAAAAAAAAAAAAAAAAAAAAAAAAAAAAAAAAAAAAAAAAAAAAAAAAAAAAAAAAAAAAAAAAAAAAAAAAAAAAAAAAAAAAAAAAAAAAAAAAAAAAAAAAAAAAAAAAAAAAAAAAAAAAAAAAAAAAAAAAAAAAAAAAAAAAAAAAAAAAAAAAAAAAAAAAAAAAAAAAAAAAAAAAAAAAAAAAAAAAAAAAAAAAAAAAAAAAAAAAAAAAAAAAAAAAAAAAAAAAAAAAAAAAAAAAAAAAAAAAAAAAAAAAAAAAAAAAAAAAAAAAAAAAAAAAAAAAAAAAAAAAAAAAAAAAAAAAAAAAAAAAAAAAAAAAAAAAAAAAAAAAAAAAAAAAAAAAAAAAAAAAAAAAAAAAAAAAAAAAAAAAAAAAAAAAAAAAAAAAAAAAAAAAAAAAAAAAAAAAAAAAAAAAAAAAAAAAAAAAAAAAAAAAAAAAAAAAAAAAAAAAAAAAAAAAAAAAAAAAAAAAAAAAAAAAAAAAAAAAAAAAAAAAAAAAAAAAAAAAAAAAAAAAAAAAAAAAAAAAAAAAAAAAAAAAAAAAAAAAAAAAAAAAAAAAAAAAAAAAAAAAAAAAAAAAAAAAAAAAAAAAAAAAAAAAAAAAAAAAAAAAAAAAAAAAAAAAAAAAAAAAAAAAAAAAAAAAAAAAAAAAAAAAAAAAAAAAAAAAAAAAAAAAAAAAAAAAAAAAAAAAAAAAAAAAAAAAAAAAAAAAAAAAAAAAAAAAAAAAAAAAAAAAAAAAAAAAAAAAAAAAAAAAAAAAAAAAAAAAAAAAAAAAAAAAAAAAAAAAAAAAAAAAAAAAAAAAAAAAAAAAAAAAAAAAAAAAAAAAAAAAAAAAAAAAAAAAAAAAAAAAAAAAAAAAAAAAAAAAAAAAAAAAAAAAAAAAAAAAAAAAAAAAAAAAAAAAAAAAAAAAAAAAAAAAAAAAAAAAAAAAAAAAAAAAAAAAAAAAAAAAAAAAAAAAAAAAAAAAAAAAAAAAAAAAAAAAAAAAAAAAAAAAAAAAAAAAAAAAAAAAAAAAAAAAAAAAAAAAAAAAAAAAAAAAAAAAAAAAAAAAAAAAAAAAAAAAAAAAAAAAAAAAAAAAAAAAAAAAAAAAAAAAAAAAAAAAAAAAAAAAAAAAAAAAAAAAAAAAAAAAAAAAAAAAAAAAAAAAAAAAAAAAAAAAAAAAAAAAAAAAAAAAAAAAAAAAAAAAAAAAAAAAAAAAAAAAAAAAAAAAAAAAAAAAAAAAAAAAAAAAAAAAAAAAAAAAAAAAAAAAAAAAAAAAAAAAAAAAAAAAAAAAAAAAAAAAAAAAAAAAAAAAAAAAAAAAAAAAAAAAAAAAAAAAAAAAAAAAAAAAAAAAAAAAAAAAAAAAAAAAAAAAAAAAAAAAAAAAAAAAAAAAAAAAAAAAAAAAAAAAAAAAAAAAAAAAAAAAAAAAAAAAAAAAAAAAAAAAAAAAAAAAAAAAAAAAAAAAAAAAAAAAAAAAAAAAAAAAAAAAAAAAAAAAAAAAAAAAAAAAAAAAAAAAAAAAAAAAAAAAAAAAAAAAAAAAAAAAAAAAAAAAAAAAAAAAAAAAAAAAAAAAAAAAAAAAAAAAAAAAAAAAAAAAAAAAAAAAAAAAAAAAAAAAAAAAAAAAAAAAAAAAAAAAAAAAAAAAAAAAAAAAAAAAAAAAAAPZYQGGuxTbDi9i7KRNtaofvx03xlkmmu+RUF/zISJhpMSbjegCsR2gdQHHGKemGq4RRD5uRi/V0ZwFPQWzi0TyQxs4=</c2pa:manifest></metadata>
<rect width="1000" height="425" fill="#ffffff"/>
<defs><pattern id="conc" width="18" height="18" patternUnits="userSpaceOnUse"><rect width="18" height="18" fill="#cfcfca"/><circle cx="4" cy="5" r="1.6" fill="#9c9c96"/><circle cx="13" cy="11" r="2.2" fill="#a9a9a3"/><circle cx="7" cy="15" r="1.1" fill="#8f8f89"/></pattern><pattern id="eps" width="10" height="10" patternUnits="userSpaceOnUse"><rect width="10" height="10" fill="#eef2f7"/><circle cx="3" cy="3" r="1.4" fill="none" stroke="#c4ccd6" stroke-width="0.8"/><circle cx="8" cy="8" r="1.4" fill="none" stroke="#c4ccd6" stroke-width="0.8"/></pattern><pattern id="wool" width="24" height="12" patternUnits="userSpaceOnUse"><rect width="24" height="12" fill="#f6e7ad"/><path d="M0 6 Q6 0 12 6 T24 6" fill="none" stroke="#d9c070" stroke-width="1"/></pattern></defs>
<text x="40" y="50" font-size="17" text-anchor="start" font-weight="bold" fill="#222">a) Light floor</text>
<text x="40" y="72" font-size="13" text-anchor="start" font-weight="normal" fill="#555">22 mm boards on aluminium heat-diffusion plates</text>
<rect x="40" y="138.0" width="300" height="45.0" fill="url(#eps)" stroke="#9aa5b1"/>
<rect x="40" y="183.0" width="300" height="27.0" fill="#e9c98f" stroke="#8a6232"/>
<line x1="40" y1="192.0" x2="340" y2="192.0" stroke="#b9874d" stroke-width="0.8"/>
<line x1="40" y1="201.0" x2="340" y2="201.0" stroke="#b9874d" stroke-width="0.8"/>
<rect x="40" y="210.0" width="300" height="60.0" fill="url(#wool)" stroke="#c6ab55"/>
<rect x="180" y="210.0" width="67.5" height="60.0" fill="#e2bd86" stroke="#8a6232"/>
<rect x="40" y="105" width="300" height="33.0" fill="#dcae72" stroke="#8a6232" stroke-width="1"/>
<path d="M40 116.0 Q65 118.0 90 116.0 Q115 114.0 140 116.0 Q165 118.0 190 116.0 Q215 114.0 240 116.0 Q265 118.0 290 116.0 Q315 114.0 340 116.0" fill="none" stroke="#b9874d" stroke-width="0.8"/>
<path d="M40 127.0 Q65 129.0 90 127.0 Q115 125.0 140 127.0 Q165 129.0 190 127.0 Q215 125.0 240 127.0 Q265 129.0 290 127.0 Q315 125.0 340 127.0" fill="none" stroke="#b9874d" stroke-width="0.8"/>
<path d="M40 139.0 L62.25 139.0 A14.75 14.75 0 0 0 91.75 139.0 L131.75 139.0" fill="none" stroke="#7d8790" stroke-width="2.4"/>
<circle cx="77" cy="151.75" r="12.8" fill="#d0663a" stroke="#8c3a17" stroke-width="1.2"/>
<circle cx="77" cy="151.75" r="9.8" fill="#f4b493"/>
<path d="M247.25 139.0 L287.25 139.0 A14.75 14.75 0 0 0 316.75 139.0 L340 139.0" fill="none" stroke="#7d8790" stroke-width="2.4"/>
<circle cx="302.0" cy="151.75" r="12.8" fill="#d0663a" stroke="#8c3a17" stroke-width="1.2"/>
<circle cx="302.0" cy="151.75" r="9.8" fill="#f4b493"/>
<path d="M36 266.0 L47.5 271.0 L62.5 261.0 L77.5 271.0 L92.5 261.0 L107.5 271.0 L122.5 261.0 L137.5 271.0 L152.5 261.0 L167.5 271.0 L182.5 261.0 L197.5 271.0 L212.5 261.0 L227.5 271.0 L242.5 261.0 L257.5 271.0 L272.5 261.0 L287.5 271.0 L302.5 261.0 L317.5 271.0 L332.5 261.0 L344 266.0" fill="none" stroke="#ffffff" stroke-width="7"/>
<path d="M36 266.0 L47.5 271.0 L62.5 261.0 L77.5 271.0 L92.5 261.0 L107.5 271.0 L122.5 261.0 L137.5 271.0 L152.5 261.0 L167.5 271.0 L182.5 261.0 L197.5 271.0 L212.5 261.0 L227.5 271.0 L242.5 261.0 L257.5 271.0 L272.5 261.0 L287.5 271.0 L302.5 261.0 L317.5 271.0 L332.5 261.0 L344 266.0" fill="none" stroke="#555" stroke-width="1.2"/>
<line x1="320" y1="116" x2="354" y2="116" stroke="#555" stroke-width="1"/>
<circle cx="320" cy="116" r="2.2" fill="#555"/>
<text x="360" y="121" font-size="13" text-anchor="start" font-weight="normal" fill="#222">floor boards, 22 mm</text>
<line x1="332.0" y1="139.0" x2="354" y2="139.0" stroke="#555" stroke-width="1"/>
<circle cx="332.0" cy="139.0" r="2.2" fill="#555"/>
<text x="360" y="144.0" font-size="13" text-anchor="start" font-weight="normal" fill="#222">aluminium plate</text>
<line x1="302.0" y1="155.75" x2="354" y2="155.75" stroke="#555" stroke-width="1"/>
<circle cx="302.0" cy="155.75" r="2.2" fill="#555"/>
<text x="360" y="160.75" font-size="13" text-anchor="start" font-weight="normal" fill="#222">PEX pipe, cc 150–300 mm</text>
<line x1="320" y1="177.5" x2="354" y2="177.5" stroke="#555" stroke-width="1"/>
<circle cx="320" cy="177.5" r="2.2" fill="#555"/>
<text x="360" y="182.5" font-size="13" text-anchor="start" font-weight="normal" fill="#222">grooved EPS, 30 mm</text>
<line x1="320" y1="200.5" x2="354" y2="200.5" stroke="#555" stroke-width="1"/>
<circle cx="320" cy="200.5" r="2.2" fill="#555"/>
<text x="360" y="205.5" font-size="13" text-anchor="start" font-weight="normal" fill="#222">plywood, 18 mm</text>
<line x1="320" y1="245.0" x2="354" y2="245.0" stroke="#555" stroke-width="1"/>
<circle cx="320" cy="245.0" r="2.2" fill="#555"/>
<text x="360" y="250.0" font-size="13" text-anchor="start" font-weight="normal" fill="#222">insulation / joists</text>
<text x="530" y="50" font-size="17" text-anchor="start" font-weight="bold" fill="#222">b) Heavy floor</text>
<text x="530" y="72" font-size="13" text-anchor="start" font-weight="normal" fill="#555">14 mm parquet on 100 mm concrete slab</text>
<rect x="530" y="126.0" width="300" height="150.0" fill="url(#conc)" stroke="#888"/>
<rect x="530" y="276.0" width="300" height="60.0" fill="url(#eps)" stroke="#9aa5b1"/>
<rect x="530" y="105" width="300" height="21.0" fill="#dcae72" stroke="#8a6232" stroke-width="1"/>
<path d="M530 112.0 Q555 114.0 580 112.0 Q605 110.0 630 112.0 Q655 114.0 680 112.0 Q705 110.0 730 112.0 Q755 114.0 780 112.0 Q805 110.0 830 112.0" fill="none" stroke="#b9874d" stroke-width="0.8"/>
<path d="M530 119.0 Q555 121.0 580 119.0 Q605 117.0 630 119.0 Q655 121.0 680 119.0 Q705 117.0 730 119.0 Q755 121.0 780 119.0 Q805 117.0 830 119.0" fill="none" stroke="#b9874d" stroke-width="0.8"/>
<circle cx="567" cy="201.0" r="12.0" fill="#d0663a" stroke="#8c3a17" stroke-width="1.2"/>
<circle cx="567" cy="201.0" r="9.0" fill="#f4b493"/>
<circle cx="792.0" cy="201.0" r="12.0" fill="#d0663a" stroke="#8c3a17" stroke-width="1.2"/>
<circle cx="792.0" cy="201.0" r="9.0" fill="#f4b493"/>
<path d="M526 332.0 L537.5 337.0 L552.5 327.0 L567.5 337.0 L582.5 327.0 L597.5 337.0 L612.5 327.0 L627.5 337.0 L642.5 327.0 L657.5 337.0 L672.5 327.0 L687.5 337.0 L702.5 327.0 L717.5 337.0 L732.5 327.0 L747.5 337.0 L762.5 327.0 L777.5 337.0 L792.5 327.0 L807.5 337.0 L822.5 327.0 L834 332.0" fill="none" stroke="#ffffff" stroke-width="7"/>
<path d="M526 332.0 L537.5 337.0 L552.5 327.0 L567.5 337.0 L582.5 327.0 L597.5 337.0 L612.5 327.0 L627.5 337.0 L642.5 327.0 L657.5 337.0 L672.5 327.0 L687.5 337.0 L702.5 327.0 L717.5 337.0 L732.5 327.0 L747.5 337.0 L762.5 327.0 L777.5 337.0 L792.5 327.0 L807.5 337.0 L822.5 327.0 L834 332.0" fill="none" stroke="#555" stroke-width="1.2"/>
<line x1="810" y1="112" x2="844" y2="112" stroke="#555" stroke-width="1"/>
<circle cx="810" cy="112" r="2.2" fill="#555"/>
<text x="850" y="117" font-size="13" text-anchor="start" font-weight="normal" fill="#222">parquet, 14 mm</text>
<line x1="800" y1="151.0" x2="844" y2="151.0" stroke="#555" stroke-width="1"/>
<circle cx="800" cy="151.0" r="2.2" fill="#555"/>
<text x="850" y="156.0" font-size="13" text-anchor="start" font-weight="normal" fill="#222">concrete, 100 mm</text>
<line x1="792.0" y1="201.0" x2="844" y2="201.0" stroke="#555" stroke-width="1"/>
<circle cx="792.0" cy="201.0" r="2.2" fill="#555"/>
<text x="850" y="206.0" font-size="13" text-anchor="start" font-weight="normal" fill="#222">PEX pipe in slab</text>
<line x1="810" y1="306.0" x2="844" y2="306.0" stroke="#555" stroke-width="1"/>
<circle cx="810" cy="306.0" r="2.2" fill="#555"/>
<text x="850" y="311.0" font-size="13" text-anchor="start" font-weight="normal" fill="#222">EPS insulation</text>
<text x="40" y="380" font-size="14" text-anchor="start" font-weight="normal" fill="#222">Heat capacity above pipes: ≈ 18 kJ/(m²·K)</text>
<text x="40" y="404" font-size="14" text-anchor="start" font-weight="bold" fill="#222">63 % response time: ≈ 0.5 h on, ≈ 1 h off</text>
<text x="530" y="380" font-size="14" text-anchor="start" font-weight="normal" fill="#222">Heat capacity above pipes: ≈ 120 kJ/(m²·K)</text>
<text x="530" y="404" font-size="14" text-anchor="start" font-weight="bold" fill="#222">63 % response time: ≈ 2 h on, ≈ 12 h off</text>
</svg>